<svg xmlns="http://www.w3.org/2000/svg" viewBox="0 0 177.12 49.47"><g id="Layer_2" data-name="Layer 2"><g id="Layer_1-2" data-name="Layer 1"><path d="M30.46,39.24v9.51H0V.72H11.38V39.24Z"/><path d="M72.08,7a30.65,30.65,0,0,1,5.47,18.08c0,6.26-2,13-5.33,17.42s-8.86,7-15.34,7c-6.26,0-11.3-2.38-14.76-6.91a29.61,29.61,0,0,1-5.54-18c0-6.84,1.94-13.1,5.4-17.57s8.78-7,15.26-7S68.62,2.3,72.08,7ZM50.4,13.32A28.27,28.27,0,0,0,48.31,24.7c0,10.44,3,15.62,8.93,15.62,5.76,0,8.57-5.11,8.57-15.55S63,9.14,57.17,9.14A7,7,0,0,0,50.4,13.32Z"/><path d="M126,48.75h-5.11a34.72,34.72,0,0,0-1.65-5.55c-4.11,4.68-7.42,6.27-13.11,6.27-12.1,0-19.8-9.36-19.8-24.12C86.33,9.79,94.46,0,107.28,0c10.23,0,17,5.9,18.72,16.49l-10.65,1.44a12.83,12.83,0,0,0-1.44-4.83,7.56,7.56,0,0,0-6.84-4c-6,0-9.29,5.69-9.29,16,0,9.79,3.45,15.19,9.79,15.19a7.5,7.5,0,0,0,6.26-3A7.67,7.67,0,0,0,115.35,32h-9.08V23H126Z"/><path d="M171.65,7a30.58,30.58,0,0,1,5.47,18.08c0,6.26-2,13-5.33,17.42s-8.85,7-15.33,7c-6.27,0-11.31-2.38-14.76-6.91a29.61,29.61,0,0,1-5.55-18c0-6.84,1.95-13.1,5.4-17.57s8.79-7,15.27-7S168.19,2.3,171.65,7ZM150,13.32a28.1,28.1,0,0,0-2.09,11.38c0,10.44,3,15.62,8.93,15.62,5.76,0,8.57-5.11,8.57-15.55s-2.81-15.63-8.64-15.63A6.94,6.94,0,0,0,150,13.32Z"/></g></g></svg>